<?xml version="1.0" encoding="UTF-8"?>
<svg xmlns="http://www.w3.org/2000/svg" xmlns:xlink="http://www.w3.org/1999/xlink" viewBox="0 0 60 60" width="60px" height="60px">
<g id="surface91596196">
<path style=" stroke:none;fill-rule:nonzero;fill:rgb(100%,100%,100%);fill-opacity:1;" d="M 30 6 C 16.746094 6 6 16.746094 6 30 C 6 43.253906 16.746094 54 30 54 C 43.253906 54 54 43.253906 54 30 C 54 16.746094 43.253906 6 30 6 Z M 42.929688 25.070312 C 42.941406 25.335938 42.945312 25.601562 42.945312 25.863281 C 42.945312 34 36.757812 43.375 25.433594 43.375 C 21.957031 43.375 18.722656 42.359375 16 40.609375 C 16.480469 40.667969 16.972656 40.695312 17.46875 40.695312 C 20.355469 40.695312 23.007812 39.710938 25.113281 38.058594 C 22.417969 38.007812 20.144531 36.226562 19.363281 33.785156 C 19.738281 33.855469 20.125 33.894531 20.519531 33.894531 C 21.082031 33.894531 21.628906 33.816406 22.140625 33.679688 C 19.324219 33.113281 17.203125 30.625 17.203125 27.644531 C 17.203125 27.617188 17.203125 27.59375 17.203125 27.566406 C 18.035156 28.027344 18.980469 28.304688 19.992188 28.335938 C 18.34375 27.234375 17.253906 25.347656 17.253906 23.214844 C 17.253906 22.085938 17.554688 21.027344 18.085938 20.121094 C 21.121094 23.84375 25.65625 26.296875 30.773438 26.550781 C 30.667969 26.101562 30.613281 25.632812 30.613281 25.148438 C 30.613281 21.753906 33.371094 18.992188 36.769531 18.992188 C 38.539062 18.992188 40.136719 19.742188 41.261719 20.9375 C 42.660156 20.660156 43.980469 20.148438 45.171875 19.445312 C 44.710938 20.882812 43.734375 22.085938 42.460938 22.851562 C 43.707031 22.703125 44.890625 22.371094 45.996094 21.882812 C 45.175781 23.117188 44.132812 24.199219 42.929688 25.070312 Z M 42.929688 25.070312 "/>
</g>
</svg>
