<?xml version="1.0" encoding="UTF-8"?>
<svg xmlns="http://www.w3.org/2000/svg" xmlns:xlink="http://www.w3.org/1999/xlink" viewBox="0 0 60 60" width="60px" height="60px">
<g id="surface91592521">
<path style=" stroke:none;fill-rule:nonzero;fill:rgb(100%,100%,100%);fill-opacity:1;" d="M 30 6 C 16.746094 6 6 16.746094 6 30 C 6 43.253906 16.746094 54 30 54 C 43.253906 54 54 43.253906 54 30 C 54 16.746094 43.253906 6 30 6 Z M 20.992188 16.804688 C 22.675781 16.804688 23.796875 17.929688 23.796875 19.425781 C 23.796875 20.921875 22.675781 22.042969 20.804688 22.042969 C 19.121094 22.042969 18 20.921875 18 19.425781 C 18 17.929688 19.121094 16.804688 20.992188 16.804688 Z M 24 40 L 18 40 L 18 24 L 24 24 Z M 44 40 L 38.351562 40 L 38.351562 31.257812 C 38.351562 28.839844 36.847656 28.28125 36.28125 28.28125 C 35.71875 28.28125 33.835938 28.652344 33.835938 31.257812 C 33.835938 31.628906 33.835938 40 33.835938 40 L 28 40 L 28 24 L 33.835938 24 L 33.835938 26.230469 C 34.589844 24.929688 36.09375 24 38.917969 24 C 41.742188 24 44 26.230469 44 31.257812 Z M 44 40 "/>
</g>
</svg>
