<?xml version="1.0" encoding="UTF-8"?>
<svg xmlns="http://www.w3.org/2000/svg" xmlns:xlink="http://www.w3.org/1999/xlink" viewBox="0 0 60 60" width="60px" height="60px">
<g id="surface91710189">
<path style=" stroke:none;fill-rule:nonzero;fill:rgb(100%,100%,100%);fill-opacity:1;" d="M 30 6 C 16.746094 6 6 16.746094 6 30 C 6 43.253906 16.746094 54 30 54 C 43.253906 54 54 43.253906 54 30 C 54 16.746094 43.253906 6 30 6 Z M 38.363281 22 L 34.902344 22 C 32.753906 22 32 23.136719 32 25.4375 L 32 28 L 38.308594 28 L 37.453125 34 L 32 34 L 32 49.898438 C 31.34375 49.964844 30.675781 50 30 50 C 28.628906 50 27.292969 49.859375 26 49.597656 L 26 34 L 20 34 L 20 28 L 26 28 L 26 24.777344 C 26 18.679688 28.972656 16 34.042969 16 C 36.46875 16 37.753906 16.179688 38.363281 16.261719 Z M 38.363281 22 "/>
</g>
</svg>
